G04 #@! TF.FileFunction,Legend,Top*
%FSLAX46Y46*%
G04 Gerber Fmt 4.6, Leading zero omitted, Abs format (unit mm)*
G04 Created by KiCad (PCBNEW 4.0.1-stable) date 2/13/2016 12:37:01 PM*
%MOMM*%
G01*
G04 APERTURE LIST*
%ADD10C,0.100000*%
%ADD11C,0.150000*%
%ADD12C,0.381000*%
%ADD13C,0.200660*%
%ADD14C,0.304800*%
G04 APERTURE END LIST*
D10*
D11*
X172812000Y-105568000D02*
X172812000Y-106268000D01*
X171612000Y-106268000D02*
X171612000Y-105568000D01*
X174891700Y-90511680D02*
X175592740Y-90511680D01*
X175592740Y-90511680D02*
X175592740Y-90760600D01*
X175592740Y-93310660D02*
X175592740Y-93511320D01*
X175592740Y-93511320D02*
X174891700Y-93511320D01*
X172691500Y-95917500D02*
X172691500Y-95217500D01*
X173891500Y-95217500D02*
X173891500Y-95917500D01*
X179034000Y-99830000D02*
X179034000Y-105830000D01*
X174534000Y-105830000D02*
X174534000Y-99830000D01*
X172616500Y-99369500D02*
X172616500Y-98369500D01*
X173966500Y-98369500D02*
X173966500Y-99369500D01*
X170675500Y-102344500D02*
G75*
G03X170675500Y-102344500I-100000J0D01*
G01*
X170825500Y-101794500D02*
X170825500Y-102294500D01*
X173725500Y-101794500D02*
X170825500Y-101794500D01*
X173725500Y-102294500D02*
X173725500Y-101794500D01*
X170825500Y-102294500D02*
X173725500Y-102294500D01*
X166995500Y-100344500D02*
G75*
G03X166995500Y-100344500I-100000J0D01*
G01*
X167445500Y-100594500D02*
X166945500Y-100594500D01*
X167445500Y-103494500D02*
X167445500Y-100594500D01*
X166945500Y-103494500D02*
X167445500Y-103494500D01*
X166945500Y-100594500D02*
X166945500Y-103494500D01*
X167132000Y-96901000D02*
X167894000Y-96901000D01*
X167513000Y-97282000D02*
X167513000Y-96520000D01*
X167259000Y-94615000D02*
X171069000Y-94615000D01*
X166497000Y-98425000D02*
X166497000Y-95377000D01*
X167259000Y-94615000D02*
X166497000Y-95377000D01*
X167259000Y-99187000D02*
X171069000Y-99187000D01*
X167259000Y-99187000D02*
X166497000Y-98425000D01*
X170815000Y-96774000D02*
X170815000Y-97028000D01*
X170688000Y-97536000D02*
X170688000Y-96266000D01*
X170561000Y-96012000D02*
X170561000Y-97790000D01*
X170434000Y-95758000D02*
X170434000Y-98044000D01*
X170307000Y-98171000D02*
X170307000Y-95631000D01*
X170180000Y-95504000D02*
X170180000Y-98298000D01*
X170053000Y-98425000D02*
X170053000Y-95377000D01*
X169926000Y-98552000D02*
X169926000Y-95250000D01*
X171069000Y-99187000D02*
X171069000Y-94615000D01*
X170815000Y-96901000D02*
G75*
G03X170815000Y-96901000I-2032000J0D01*
G01*
X169354500Y-107378500D02*
X168592500Y-107378500D01*
X168973500Y-106997500D02*
X168973500Y-107759500D01*
X169227500Y-109664500D02*
X165417500Y-109664500D01*
X169989500Y-105854500D02*
X169989500Y-108902500D01*
X169227500Y-109664500D02*
X169989500Y-108902500D01*
X169227500Y-105092500D02*
X165417500Y-105092500D01*
X169227500Y-105092500D02*
X169989500Y-105854500D01*
X165671500Y-107505500D02*
X165671500Y-107251500D01*
X165798500Y-106743500D02*
X165798500Y-108013500D01*
X165925500Y-108267500D02*
X165925500Y-106489500D01*
X166052500Y-108521500D02*
X166052500Y-106235500D01*
X166179500Y-106108500D02*
X166179500Y-108648500D01*
X166306500Y-108775500D02*
X166306500Y-105981500D01*
X166433500Y-105854500D02*
X166433500Y-108902500D01*
X166560500Y-105727500D02*
X166560500Y-109029500D01*
X165417500Y-105092500D02*
X165417500Y-109664500D01*
X169735500Y-107378500D02*
G75*
G03X169735500Y-107378500I-2032000J0D01*
G01*
X168693500Y-90207500D02*
X170243500Y-90207500D01*
X170243500Y-93307500D02*
X168693500Y-93307500D01*
X168693500Y-93307500D02*
X168693500Y-90207500D01*
X171513500Y-93027500D02*
X171513500Y-90487500D01*
D12*
X132397500Y-98107500D02*
X132397500Y-96837500D01*
X133032500Y-97472500D02*
X131762500Y-97472500D01*
D13*
X156617756Y-101917500D02*
G75*
G03X156617756Y-101917500I-8980256J0D01*
G01*
X158562453Y-101917500D02*
G75*
G03X158562453Y-101917500I-10924953J0D01*
G01*
D11*
X174469143Y-106084666D02*
X174516762Y-106132285D01*
X174564381Y-106275142D01*
X174564381Y-106370380D01*
X174516762Y-106513238D01*
X174421524Y-106608476D01*
X174326286Y-106656095D01*
X174135810Y-106703714D01*
X173992952Y-106703714D01*
X173802476Y-106656095D01*
X173707238Y-106608476D01*
X173612000Y-106513238D01*
X173564381Y-106370380D01*
X173564381Y-106275142D01*
X173612000Y-106132285D01*
X173659619Y-106084666D01*
X174564381Y-105132285D02*
X174564381Y-105703714D01*
X174564381Y-105418000D02*
X173564381Y-105418000D01*
X173707238Y-105513238D01*
X173802476Y-105608476D01*
X173850095Y-105703714D01*
X179204881Y-92749595D02*
X178204881Y-92749595D01*
X178204881Y-92511500D01*
X178252500Y-92368642D01*
X178347738Y-92273404D01*
X178442976Y-92225785D01*
X178633452Y-92178166D01*
X178776310Y-92178166D01*
X178966786Y-92225785D01*
X179062024Y-92273404D01*
X179157262Y-92368642D01*
X179204881Y-92511500D01*
X179204881Y-92749595D01*
X179204881Y-91225785D02*
X179204881Y-91797214D01*
X179204881Y-91511500D02*
X178204881Y-91511500D01*
X178347738Y-91606738D01*
X178442976Y-91701976D01*
X178490595Y-91797214D01*
X171843881Y-95734166D02*
X171843881Y-96210357D01*
X170843881Y-96210357D01*
X171843881Y-94877023D02*
X171843881Y-95448452D01*
X171843881Y-95162738D02*
X170843881Y-95162738D01*
X170986738Y-95257976D01*
X171081976Y-95353214D01*
X171129595Y-95448452D01*
X180736381Y-102996666D02*
X180260190Y-103330000D01*
X180736381Y-103568095D02*
X179736381Y-103568095D01*
X179736381Y-103187142D01*
X179784000Y-103091904D01*
X179831619Y-103044285D01*
X179926857Y-102996666D01*
X180069714Y-102996666D01*
X180164952Y-103044285D01*
X180212571Y-103091904D01*
X180260190Y-103187142D01*
X180260190Y-103568095D01*
X180736381Y-102044285D02*
X180736381Y-102615714D01*
X180736381Y-102330000D02*
X179736381Y-102330000D01*
X179879238Y-102425238D01*
X179974476Y-102520476D01*
X180022095Y-102615714D01*
X175643881Y-99036166D02*
X175167690Y-99369500D01*
X175643881Y-99607595D02*
X174643881Y-99607595D01*
X174643881Y-99226642D01*
X174691500Y-99131404D01*
X174739119Y-99083785D01*
X174834357Y-99036166D01*
X174977214Y-99036166D01*
X175072452Y-99083785D01*
X175120071Y-99131404D01*
X175167690Y-99226642D01*
X175167690Y-99607595D01*
X174739119Y-98655214D02*
X174691500Y-98607595D01*
X174643881Y-98512357D01*
X174643881Y-98274261D01*
X174691500Y-98179023D01*
X174739119Y-98131404D01*
X174834357Y-98083785D01*
X174929595Y-98083785D01*
X175072452Y-98131404D01*
X175643881Y-98702833D01*
X175643881Y-98083785D01*
X169177881Y-102856405D02*
X169987405Y-102856405D01*
X170082643Y-102808786D01*
X170130262Y-102761167D01*
X170177881Y-102665929D01*
X170177881Y-102475452D01*
X170130262Y-102380214D01*
X170082643Y-102332595D01*
X169987405Y-102284976D01*
X169177881Y-102284976D01*
X170177881Y-101284976D02*
X170177881Y-101856405D01*
X170177881Y-101570691D02*
X169177881Y-101570691D01*
X169320738Y-101665929D01*
X169415976Y-101761167D01*
X169463595Y-101856405D01*
X166383595Y-98946881D02*
X166383595Y-99756405D01*
X166431214Y-99851643D01*
X166478833Y-99899262D01*
X166574071Y-99946881D01*
X166764548Y-99946881D01*
X166859786Y-99899262D01*
X166907405Y-99851643D01*
X166955024Y-99756405D01*
X166955024Y-98946881D01*
X167383595Y-99042119D02*
X167431214Y-98994500D01*
X167526452Y-98946881D01*
X167764548Y-98946881D01*
X167859786Y-98994500D01*
X167907405Y-99042119D01*
X167955024Y-99137357D01*
X167955024Y-99232595D01*
X167907405Y-99375452D01*
X167335976Y-99946881D01*
X167955024Y-99946881D01*
X168616334Y-100433143D02*
X168568715Y-100480762D01*
X168425858Y-100528381D01*
X168330620Y-100528381D01*
X168187762Y-100480762D01*
X168092524Y-100385524D01*
X168044905Y-100290286D01*
X167997286Y-100099810D01*
X167997286Y-99956952D01*
X168044905Y-99766476D01*
X168092524Y-99671238D01*
X168187762Y-99576000D01*
X168330620Y-99528381D01*
X168425858Y-99528381D01*
X168568715Y-99576000D01*
X168616334Y-99623619D01*
X168997286Y-99623619D02*
X169044905Y-99576000D01*
X169140143Y-99528381D01*
X169378239Y-99528381D01*
X169473477Y-99576000D01*
X169521096Y-99623619D01*
X169568715Y-99718857D01*
X169568715Y-99814095D01*
X169521096Y-99956952D01*
X168949667Y-100528381D01*
X169568715Y-100528381D01*
X167536834Y-104560643D02*
X167489215Y-104608262D01*
X167346358Y-104655881D01*
X167251120Y-104655881D01*
X167108262Y-104608262D01*
X167013024Y-104513024D01*
X166965405Y-104417786D01*
X166917786Y-104227310D01*
X166917786Y-104084452D01*
X166965405Y-103893976D01*
X167013024Y-103798738D01*
X167108262Y-103703500D01*
X167251120Y-103655881D01*
X167346358Y-103655881D01*
X167489215Y-103703500D01*
X167536834Y-103751119D01*
X167870167Y-103655881D02*
X168489215Y-103655881D01*
X168155881Y-104036833D01*
X168298739Y-104036833D01*
X168393977Y-104084452D01*
X168441596Y-104132071D01*
X168489215Y-104227310D01*
X168489215Y-104465405D01*
X168441596Y-104560643D01*
X168393977Y-104608262D01*
X168298739Y-104655881D01*
X168013024Y-104655881D01*
X167917786Y-104608262D01*
X167870167Y-104560643D01*
X165595881Y-92495595D02*
X164595881Y-92495595D01*
X164595881Y-92114642D01*
X164643500Y-92019404D01*
X164691119Y-91971785D01*
X164786357Y-91924166D01*
X164929214Y-91924166D01*
X165024452Y-91971785D01*
X165072071Y-92019404D01*
X165119690Y-92114642D01*
X165119690Y-92495595D01*
X165595881Y-90971785D02*
X165595881Y-91543214D01*
X165595881Y-91257500D02*
X164595881Y-91257500D01*
X164738738Y-91352738D01*
X164833976Y-91447976D01*
X164881595Y-91543214D01*
D14*
X146440071Y-89408643D02*
X146657785Y-89481214D01*
X146730357Y-89553786D01*
X146802928Y-89698929D01*
X146802928Y-89916643D01*
X146730357Y-90061786D01*
X146657785Y-90134357D01*
X146512643Y-90206929D01*
X145932071Y-90206929D01*
X145932071Y-88682929D01*
X146440071Y-88682929D01*
X146585214Y-88755500D01*
X146657785Y-88828071D01*
X146730357Y-88973214D01*
X146730357Y-89118357D01*
X146657785Y-89263500D01*
X146585214Y-89336071D01*
X146440071Y-89408643D01*
X145932071Y-89408643D01*
X147238357Y-88682929D02*
X148109214Y-88682929D01*
X147673785Y-90206929D02*
X147673785Y-88682929D01*
X149415500Y-90206929D02*
X148544643Y-90206929D01*
X148980071Y-90206929D02*
X148980071Y-88682929D01*
X148834928Y-88900643D01*
X148689786Y-89045786D01*
X148544643Y-89118357D01*
M02*
