G04 #@! TF.FileFunction,Copper,L1,Top,Signal*
%FSLAX46Y46*%
G04 Gerber Fmt 4.6, Leading zero omitted, Abs format (unit mm)*
G04 Created by KiCad (PCBNEW 4.0.1-stable) date 2/13/2016 12:37:01 PM*
%MOMM*%
G01*
G04 APERTURE LIST*
%ADD10C,0.100000*%
%ADD11R,0.750000X1.200000*%
%ADD12R,1.800860X0.800100*%
%ADD13R,1.400000X1.400000*%
%ADD14C,1.400000*%
%ADD15R,0.900000X0.500000*%
%ADD16R,0.650000X1.060000*%
%ADD17R,1.060000X0.650000*%
%ADD18R,2.600960X1.600200*%
%ADD19R,2.235200X2.235200*%
%ADD20C,17.800000*%
%ADD21R,3.149600X4.780280*%
%ADD22C,0.700000*%
G04 APERTURE END LIST*
D10*
D11*
X172212000Y-104968000D03*
X172212000Y-106868000D03*
D12*
X173441360Y-91061500D03*
X173441360Y-92961500D03*
X176443640Y-92011500D03*
D11*
X173291500Y-96517500D03*
X173291500Y-94617500D03*
D13*
X176784000Y-100330000D03*
D14*
X176784000Y-105330000D03*
D15*
X173291500Y-98119500D03*
X173291500Y-99619500D03*
D16*
X171325500Y-103144500D03*
X172275500Y-103144500D03*
X173225500Y-103144500D03*
X173225500Y-100944500D03*
X171325500Y-100944500D03*
D17*
X166095500Y-101094500D03*
X166095500Y-102044500D03*
X166095500Y-102994500D03*
X168295500Y-102994500D03*
X168295500Y-101094500D03*
D18*
X166982140Y-96901000D03*
X170583860Y-96901000D03*
X169504360Y-107378500D03*
X165902640Y-107378500D03*
D19*
X170243500Y-91757500D03*
D20*
X147537500Y-101917500D03*
D21*
X132118100Y-101917500D03*
X163156900Y-101917500D03*
D22*
X172275500Y-103144500D02*
X172275500Y-104904500D01*
X172275500Y-104904500D02*
X172701000Y-105330000D01*
X172701000Y-105330000D02*
X176784000Y-105330000D01*
X166095500Y-102044500D02*
X167322500Y-102044500D01*
X167322500Y-102044500D02*
X167386000Y-101981000D01*
X173441360Y-92961500D02*
X171447500Y-92961500D01*
X171447500Y-92961500D02*
X170243500Y-91757500D01*
X173291500Y-94617500D02*
X173291500Y-93111360D01*
X173291500Y-93111360D02*
X173441360Y-92961500D01*
X173291500Y-98119500D02*
X173291500Y-96517500D01*
X173291500Y-99619500D02*
X176073500Y-99619500D01*
X176073500Y-99619500D02*
X176784000Y-100330000D01*
X173225500Y-100944500D02*
X173225500Y-99685500D01*
X173225500Y-99685500D02*
X173291500Y-99619500D01*
X169799000Y-101094500D02*
X169799000Y-107083860D01*
X169799000Y-107083860D02*
X169504360Y-107378500D01*
X168295500Y-101094500D02*
X169799000Y-101094500D01*
X169799000Y-101094500D02*
X171175500Y-101094500D01*
X171175500Y-101094500D02*
X171325500Y-100944500D01*
X166095500Y-101094500D02*
X166095500Y-97787640D01*
X166095500Y-97787640D02*
X166982140Y-96901000D01*
X166095500Y-102994500D02*
X164233900Y-102994500D01*
X164233900Y-102994500D02*
X163156900Y-101917500D01*
X166095500Y-101094500D02*
X163979900Y-101094500D01*
X163979900Y-101094500D02*
X163156900Y-101917500D01*
D10*
G36*
X208413000Y-131959000D02*
X126994000Y-131959000D01*
X126994000Y-108773275D01*
X140964568Y-108773275D01*
X142037133Y-109828366D01*
X145483181Y-111331087D01*
X149241980Y-111400674D01*
X152741288Y-110026534D01*
X153037867Y-109828366D01*
X154110432Y-108773275D01*
X147537500Y-102200343D01*
X140964568Y-108773275D01*
X126994000Y-108773275D01*
X126994000Y-99527360D01*
X130237423Y-99527360D01*
X130237423Y-104307640D01*
X130258342Y-104418813D01*
X130324045Y-104520919D01*
X130424297Y-104589418D01*
X130543300Y-104613517D01*
X133692900Y-104613517D01*
X133804073Y-104592598D01*
X133906179Y-104526895D01*
X133974678Y-104426643D01*
X133998777Y-104307640D01*
X133998777Y-103621980D01*
X138054326Y-103621980D01*
X139428466Y-107121288D01*
X139626634Y-107417867D01*
X140681725Y-108490432D01*
X147254657Y-101917500D01*
X147820343Y-101917500D01*
X154393275Y-108490432D01*
X155155090Y-107716000D01*
X164052160Y-107716000D01*
X164052160Y-108288002D01*
X164135892Y-108490150D01*
X164290610Y-108644867D01*
X164492758Y-108728600D01*
X165565140Y-108728600D01*
X165702640Y-108591100D01*
X165702640Y-107578500D01*
X166102640Y-107578500D01*
X166102640Y-108591100D01*
X166240140Y-108728600D01*
X167312522Y-108728600D01*
X167514670Y-108644867D01*
X167669388Y-108490150D01*
X167753120Y-108288002D01*
X167753120Y-107716000D01*
X167615620Y-107578500D01*
X166102640Y-107578500D01*
X165702640Y-107578500D01*
X164189660Y-107578500D01*
X164052160Y-107716000D01*
X155155090Y-107716000D01*
X155448366Y-107417867D01*
X155862140Y-106468998D01*
X164052160Y-106468998D01*
X164052160Y-107041000D01*
X164189660Y-107178500D01*
X165702640Y-107178500D01*
X165702640Y-106165900D01*
X166102640Y-106165900D01*
X166102640Y-107178500D01*
X167615620Y-107178500D01*
X167753120Y-107041000D01*
X167753120Y-106468998D01*
X167669388Y-106266850D01*
X167514670Y-106112133D01*
X167312522Y-106028400D01*
X166240140Y-106028400D01*
X166102640Y-106165900D01*
X165702640Y-106165900D01*
X165565140Y-106028400D01*
X164492758Y-106028400D01*
X164290610Y-106112133D01*
X164135892Y-106266850D01*
X164052160Y-106468998D01*
X155862140Y-106468998D01*
X156951087Y-103971819D01*
X157020674Y-100213020D01*
X156751423Y-99527360D01*
X161276223Y-99527360D01*
X161276223Y-104307640D01*
X161297142Y-104418813D01*
X161362845Y-104520919D01*
X161463097Y-104589418D01*
X161582100Y-104613517D01*
X164731700Y-104613517D01*
X164842873Y-104592598D01*
X164944979Y-104526895D01*
X165013478Y-104426643D01*
X165037577Y-104307640D01*
X165037577Y-103644500D01*
X166095500Y-103644500D01*
X166191638Y-103625377D01*
X166625500Y-103625377D01*
X166736673Y-103604458D01*
X166838779Y-103538755D01*
X166907278Y-103438503D01*
X166931377Y-103319500D01*
X166931377Y-102838117D01*
X166937050Y-102835767D01*
X167091768Y-102681050D01*
X167096552Y-102669500D01*
X167459623Y-102669500D01*
X167459623Y-103319500D01*
X167480542Y-103430673D01*
X167546245Y-103532779D01*
X167646497Y-103601278D01*
X167765500Y-103625377D01*
X168825500Y-103625377D01*
X168936673Y-103604458D01*
X169038779Y-103538755D01*
X169107278Y-103438503D01*
X169131377Y-103319500D01*
X169131377Y-102669500D01*
X169110458Y-102558327D01*
X169044755Y-102456221D01*
X168944503Y-102387722D01*
X168825500Y-102363623D01*
X167765500Y-102363623D01*
X167654327Y-102384542D01*
X167552221Y-102450245D01*
X167483722Y-102550497D01*
X167459623Y-102669500D01*
X167096552Y-102669500D01*
X167175500Y-102478902D01*
X167175500Y-102344500D01*
X167038000Y-102207000D01*
X166295500Y-102207000D01*
X166295500Y-102264500D01*
X165895500Y-102264500D01*
X165895500Y-102207000D01*
X165875500Y-102207000D01*
X165875500Y-101882000D01*
X165895500Y-101882000D01*
X165895500Y-101824500D01*
X166295500Y-101824500D01*
X166295500Y-101882000D01*
X167038000Y-101882000D01*
X167175500Y-101744500D01*
X167175500Y-101610098D01*
X167091768Y-101407950D01*
X166937050Y-101253233D01*
X166931377Y-101250883D01*
X166931377Y-100769500D01*
X167459623Y-100769500D01*
X167459623Y-101419500D01*
X167480542Y-101530673D01*
X167546245Y-101632779D01*
X167646497Y-101701278D01*
X167765500Y-101725377D01*
X168199362Y-101725377D01*
X168295500Y-101744500D01*
X169149000Y-101744500D01*
X169149000Y-106272523D01*
X168203880Y-106272523D01*
X168092707Y-106293442D01*
X167990601Y-106359145D01*
X167922102Y-106459397D01*
X167898003Y-106578400D01*
X167898003Y-108178600D01*
X167918922Y-108289773D01*
X167984625Y-108391879D01*
X168084877Y-108460378D01*
X168203880Y-108484477D01*
X170804840Y-108484477D01*
X170916013Y-108463558D01*
X171018119Y-108397855D01*
X171086618Y-108297603D01*
X171110717Y-108178600D01*
X171110717Y-107205500D01*
X171287000Y-107205500D01*
X171287000Y-107577402D01*
X171370733Y-107779550D01*
X171525450Y-107934268D01*
X171727598Y-108018000D01*
X171887000Y-108018000D01*
X172024500Y-107880500D01*
X172024500Y-107068000D01*
X172399500Y-107068000D01*
X172399500Y-107880500D01*
X172537000Y-108018000D01*
X172696402Y-108018000D01*
X172898550Y-107934268D01*
X173053267Y-107779550D01*
X173137000Y-107577402D01*
X173137000Y-107205500D01*
X172999500Y-107068000D01*
X172399500Y-107068000D01*
X172024500Y-107068000D01*
X171424500Y-107068000D01*
X171287000Y-107205500D01*
X171110717Y-107205500D01*
X171110717Y-106578400D01*
X171089798Y-106467227D01*
X171024095Y-106365121D01*
X170923843Y-106296622D01*
X170804840Y-106272523D01*
X170449000Y-106272523D01*
X170449000Y-102614500D01*
X170694623Y-102614500D01*
X170694623Y-103674500D01*
X170715542Y-103785673D01*
X170781245Y-103887779D01*
X170881497Y-103956278D01*
X171000500Y-103980377D01*
X171625500Y-103980377D01*
X171625500Y-104147600D01*
X171623721Y-104148745D01*
X171555222Y-104248997D01*
X171531123Y-104368000D01*
X171531123Y-105568000D01*
X171552042Y-105679173D01*
X171608713Y-105767243D01*
X171525450Y-105801732D01*
X171370733Y-105956450D01*
X171287000Y-106158598D01*
X171287000Y-106530500D01*
X171424500Y-106668000D01*
X172024500Y-106668000D01*
X172024500Y-106648000D01*
X172399500Y-106648000D01*
X172399500Y-106668000D01*
X172999500Y-106668000D01*
X173137000Y-106530500D01*
X173137000Y-106158598D01*
X173063022Y-105980000D01*
X176019886Y-105980000D01*
X176216806Y-106177264D01*
X176584215Y-106329826D01*
X176982040Y-106330173D01*
X177349714Y-106178253D01*
X177631264Y-105897194D01*
X177783826Y-105529785D01*
X177784173Y-105131960D01*
X177632253Y-104764286D01*
X177351194Y-104482736D01*
X176983785Y-104330174D01*
X176585960Y-104329827D01*
X176218286Y-104481747D01*
X176019687Y-104680000D01*
X172970238Y-104680000D01*
X172925500Y-104635262D01*
X172925500Y-104224500D01*
X173063000Y-104087000D01*
X173063000Y-103344500D01*
X173388000Y-103344500D01*
X173388000Y-104087000D01*
X173525500Y-104224500D01*
X173659902Y-104224500D01*
X173862050Y-104140768D01*
X174016767Y-103986050D01*
X174100500Y-103783902D01*
X174100500Y-103482000D01*
X173963000Y-103344500D01*
X173388000Y-103344500D01*
X173063000Y-103344500D01*
X173005500Y-103344500D01*
X173005500Y-102944500D01*
X173063000Y-102944500D01*
X173063000Y-102202000D01*
X173388000Y-102202000D01*
X173388000Y-102944500D01*
X173963000Y-102944500D01*
X174100500Y-102807000D01*
X174100500Y-102505098D01*
X174016767Y-102302950D01*
X173862050Y-102148232D01*
X173659902Y-102064500D01*
X173525500Y-102064500D01*
X173388000Y-102202000D01*
X173063000Y-102202000D01*
X172925500Y-102064500D01*
X172791098Y-102064500D01*
X172588950Y-102148232D01*
X172434233Y-102302950D01*
X172431883Y-102308623D01*
X171950500Y-102308623D01*
X171839327Y-102329542D01*
X171800971Y-102354223D01*
X171769503Y-102332722D01*
X171650500Y-102308623D01*
X171000500Y-102308623D01*
X170889327Y-102329542D01*
X170787221Y-102395245D01*
X170718722Y-102495497D01*
X170694623Y-102614500D01*
X170449000Y-102614500D01*
X170449000Y-101744500D01*
X170864259Y-101744500D01*
X170881497Y-101756278D01*
X171000500Y-101780377D01*
X171650500Y-101780377D01*
X171761673Y-101759458D01*
X171863779Y-101693755D01*
X171932278Y-101593503D01*
X171956377Y-101474500D01*
X171956377Y-101040636D01*
X171975499Y-100944500D01*
X171956377Y-100848364D01*
X171956377Y-100414500D01*
X171935458Y-100303327D01*
X171869755Y-100201221D01*
X171769503Y-100132722D01*
X171650500Y-100108623D01*
X171000500Y-100108623D01*
X170889327Y-100129542D01*
X170787221Y-100195245D01*
X170718722Y-100295497D01*
X170694623Y-100414500D01*
X170694623Y-100444500D01*
X168295500Y-100444500D01*
X168199362Y-100463623D01*
X167765500Y-100463623D01*
X167654327Y-100484542D01*
X167552221Y-100550245D01*
X167483722Y-100650497D01*
X167459623Y-100769500D01*
X166931377Y-100769500D01*
X166910458Y-100658327D01*
X166844755Y-100556221D01*
X166745500Y-100488403D01*
X166745500Y-99369500D01*
X172535623Y-99369500D01*
X172535623Y-99869500D01*
X172556542Y-99980673D01*
X172575500Y-100010135D01*
X172575500Y-100944500D01*
X172594623Y-101040638D01*
X172594623Y-101474500D01*
X172615542Y-101585673D01*
X172681245Y-101687779D01*
X172781497Y-101756278D01*
X172900500Y-101780377D01*
X173550500Y-101780377D01*
X173661673Y-101759458D01*
X173763779Y-101693755D01*
X173832278Y-101593503D01*
X173856377Y-101474500D01*
X173856377Y-101040638D01*
X173875500Y-100944500D01*
X173875500Y-100269500D01*
X175778123Y-100269500D01*
X175778123Y-101030000D01*
X175799042Y-101141173D01*
X175864745Y-101243279D01*
X175964997Y-101311778D01*
X176084000Y-101335877D01*
X177484000Y-101335877D01*
X177595173Y-101314958D01*
X177697279Y-101249255D01*
X177765778Y-101149003D01*
X177789877Y-101030000D01*
X177789877Y-99630000D01*
X177768958Y-99518827D01*
X177703255Y-99416721D01*
X177603003Y-99348222D01*
X177484000Y-99324123D01*
X176697361Y-99324123D01*
X176533119Y-99159881D01*
X176322245Y-99018978D01*
X176280976Y-99010769D01*
X176073500Y-98969500D01*
X173291500Y-98969500D01*
X173084024Y-99010769D01*
X173042755Y-99018978D01*
X172975940Y-99063623D01*
X172841500Y-99063623D01*
X172730327Y-99084542D01*
X172628221Y-99150245D01*
X172559722Y-99250497D01*
X172535623Y-99369500D01*
X166745500Y-99369500D01*
X166745500Y-98056878D01*
X166795401Y-98006977D01*
X168282620Y-98006977D01*
X168393793Y-97986058D01*
X168495899Y-97920355D01*
X168564398Y-97820103D01*
X168588497Y-97701100D01*
X168588497Y-97238500D01*
X168733380Y-97238500D01*
X168733380Y-97810502D01*
X168817112Y-98012650D01*
X168971830Y-98167367D01*
X169173978Y-98251100D01*
X170246360Y-98251100D01*
X170383860Y-98113600D01*
X170383860Y-97101000D01*
X170783860Y-97101000D01*
X170783860Y-98113600D01*
X170921360Y-98251100D01*
X171993742Y-98251100D01*
X172195890Y-98167367D01*
X172350608Y-98012650D01*
X172409902Y-97869500D01*
X172535623Y-97869500D01*
X172535623Y-98369500D01*
X172556542Y-98480673D01*
X172622245Y-98582779D01*
X172722497Y-98651278D01*
X172841500Y-98675377D01*
X172975940Y-98675377D01*
X173042756Y-98720022D01*
X173291500Y-98769500D01*
X173540244Y-98720022D01*
X173607060Y-98675377D01*
X173741500Y-98675377D01*
X173852673Y-98654458D01*
X173954779Y-98588755D01*
X174023278Y-98488503D01*
X174047377Y-98369500D01*
X174047377Y-97869500D01*
X174026458Y-97758327D01*
X173960755Y-97656221D01*
X173941500Y-97643065D01*
X173941500Y-97246423D01*
X173948278Y-97236503D01*
X173972377Y-97117500D01*
X173972377Y-95917500D01*
X173951458Y-95806327D01*
X173885755Y-95704221D01*
X173785503Y-95635722D01*
X173666500Y-95611623D01*
X172916500Y-95611623D01*
X172805327Y-95632542D01*
X172703221Y-95698245D01*
X172634722Y-95798497D01*
X172610623Y-95917500D01*
X172610623Y-97117500D01*
X172631542Y-97228673D01*
X172641500Y-97244148D01*
X172641500Y-97641700D01*
X172628221Y-97650245D01*
X172559722Y-97750497D01*
X172535623Y-97869500D01*
X172409902Y-97869500D01*
X172434340Y-97810502D01*
X172434340Y-97238500D01*
X172296840Y-97101000D01*
X170783860Y-97101000D01*
X170383860Y-97101000D01*
X168870880Y-97101000D01*
X168733380Y-97238500D01*
X168588497Y-97238500D01*
X168588497Y-96100900D01*
X168567912Y-95991498D01*
X168733380Y-95991498D01*
X168733380Y-96563500D01*
X168870880Y-96701000D01*
X170383860Y-96701000D01*
X170383860Y-95688400D01*
X170783860Y-95688400D01*
X170783860Y-96701000D01*
X172296840Y-96701000D01*
X172434340Y-96563500D01*
X172434340Y-95991498D01*
X172350608Y-95789350D01*
X172195890Y-95634633D01*
X171993742Y-95550900D01*
X170921360Y-95550900D01*
X170783860Y-95688400D01*
X170383860Y-95688400D01*
X170246360Y-95550900D01*
X169173978Y-95550900D01*
X168971830Y-95634633D01*
X168817112Y-95789350D01*
X168733380Y-95991498D01*
X168567912Y-95991498D01*
X168567578Y-95989727D01*
X168501875Y-95887621D01*
X168401623Y-95819122D01*
X168282620Y-95795023D01*
X165681660Y-95795023D01*
X165570487Y-95815942D01*
X165468381Y-95881645D01*
X165399882Y-95981897D01*
X165375783Y-96100900D01*
X165375783Y-97701100D01*
X165396702Y-97812273D01*
X165445500Y-97888108D01*
X165445500Y-100444500D01*
X165037577Y-100444500D01*
X165037577Y-99527360D01*
X165016658Y-99416187D01*
X164950955Y-99314081D01*
X164850703Y-99245582D01*
X164731700Y-99221483D01*
X161582100Y-99221483D01*
X161470927Y-99242402D01*
X161368821Y-99308105D01*
X161300322Y-99408357D01*
X161276223Y-99527360D01*
X156751423Y-99527360D01*
X155646534Y-96713712D01*
X155448366Y-96417133D01*
X154393275Y-95344568D01*
X147820343Y-101917500D01*
X147254657Y-101917500D01*
X140681725Y-95344568D01*
X139626634Y-96417133D01*
X138123913Y-99863181D01*
X138054326Y-103621980D01*
X133998777Y-103621980D01*
X133998777Y-99527360D01*
X133977858Y-99416187D01*
X133912155Y-99314081D01*
X133811903Y-99245582D01*
X133692900Y-99221483D01*
X130543300Y-99221483D01*
X130432127Y-99242402D01*
X130330021Y-99308105D01*
X130261522Y-99408357D01*
X130237423Y-99527360D01*
X126994000Y-99527360D01*
X126994000Y-95061725D01*
X140964568Y-95061725D01*
X147537500Y-101634657D01*
X154110432Y-95061725D01*
X153037867Y-94006634D01*
X149591819Y-92503913D01*
X145833020Y-92434326D01*
X142333712Y-93808466D01*
X142037133Y-94006634D01*
X140964568Y-95061725D01*
X126994000Y-95061725D01*
X126994000Y-90639900D01*
X168820023Y-90639900D01*
X168820023Y-92875100D01*
X168840942Y-92986273D01*
X168906645Y-93088379D01*
X169006897Y-93156878D01*
X169125900Y-93180977D01*
X170747739Y-93180977D01*
X170987881Y-93421119D01*
X171198755Y-93562022D01*
X171240024Y-93570231D01*
X171447500Y-93611500D01*
X172375345Y-93611500D01*
X172421927Y-93643328D01*
X172540930Y-93667427D01*
X172641500Y-93667427D01*
X172641500Y-93888577D01*
X172634722Y-93898497D01*
X172610623Y-94017500D01*
X172610623Y-95217500D01*
X172631542Y-95328673D01*
X172697245Y-95430779D01*
X172797497Y-95499278D01*
X172916500Y-95523377D01*
X173666500Y-95523377D01*
X173777673Y-95502458D01*
X173879779Y-95436755D01*
X173948278Y-95336503D01*
X173972377Y-95217500D01*
X173972377Y-94017500D01*
X173951458Y-93906327D01*
X173941500Y-93890852D01*
X173941500Y-93667427D01*
X174341790Y-93667427D01*
X174452963Y-93646508D01*
X174555069Y-93580805D01*
X174623568Y-93480553D01*
X174647667Y-93361550D01*
X174647667Y-92561450D01*
X174626748Y-92450277D01*
X174561579Y-92349000D01*
X174993210Y-92349000D01*
X174993210Y-92520952D01*
X175076943Y-92723100D01*
X175231660Y-92877818D01*
X175433808Y-92961550D01*
X176106140Y-92961550D01*
X176243640Y-92824050D01*
X176243640Y-92211500D01*
X176643640Y-92211500D01*
X176643640Y-92824050D01*
X176781140Y-92961550D01*
X177453472Y-92961550D01*
X177655620Y-92877818D01*
X177810337Y-92723100D01*
X177894070Y-92520952D01*
X177894070Y-92349000D01*
X177756570Y-92211500D01*
X176643640Y-92211500D01*
X176243640Y-92211500D01*
X175130710Y-92211500D01*
X174993210Y-92349000D01*
X174561579Y-92349000D01*
X174561045Y-92348171D01*
X174460793Y-92279672D01*
X174341790Y-92255573D01*
X172540930Y-92255573D01*
X172429757Y-92276492D01*
X172375353Y-92311500D01*
X171716738Y-92311500D01*
X171666977Y-92261739D01*
X171666977Y-90661450D01*
X172235053Y-90661450D01*
X172235053Y-91461550D01*
X172255972Y-91572723D01*
X172321675Y-91674829D01*
X172421927Y-91743328D01*
X172540930Y-91767427D01*
X174341790Y-91767427D01*
X174452963Y-91746508D01*
X174555069Y-91680805D01*
X174623568Y-91580553D01*
X174639465Y-91502048D01*
X174993210Y-91502048D01*
X174993210Y-91674000D01*
X175130710Y-91811500D01*
X176243640Y-91811500D01*
X176243640Y-91198950D01*
X176643640Y-91198950D01*
X176643640Y-91811500D01*
X177756570Y-91811500D01*
X177894070Y-91674000D01*
X177894070Y-91502048D01*
X177810337Y-91299900D01*
X177655620Y-91145182D01*
X177453472Y-91061450D01*
X176781140Y-91061450D01*
X176643640Y-91198950D01*
X176243640Y-91198950D01*
X176106140Y-91061450D01*
X175433808Y-91061450D01*
X175231660Y-91145182D01*
X175076943Y-91299900D01*
X174993210Y-91502048D01*
X174639465Y-91502048D01*
X174647667Y-91461550D01*
X174647667Y-90661450D01*
X174626748Y-90550277D01*
X174561045Y-90448171D01*
X174460793Y-90379672D01*
X174341790Y-90355573D01*
X172540930Y-90355573D01*
X172429757Y-90376492D01*
X172327651Y-90442195D01*
X172259152Y-90542447D01*
X172235053Y-90661450D01*
X171666977Y-90661450D01*
X171666977Y-90639900D01*
X171646058Y-90528727D01*
X171580355Y-90426621D01*
X171480103Y-90358122D01*
X171361100Y-90334023D01*
X169125900Y-90334023D01*
X169014727Y-90354942D01*
X168912621Y-90420645D01*
X168844122Y-90520897D01*
X168820023Y-90639900D01*
X126994000Y-90639900D01*
X126994000Y-60065000D01*
X208413000Y-60065000D01*
X208413000Y-131959000D01*
X208413000Y-131959000D01*
G37*
X208413000Y-131959000D02*
X126994000Y-131959000D01*
X126994000Y-108773275D01*
X140964568Y-108773275D01*
X142037133Y-109828366D01*
X145483181Y-111331087D01*
X149241980Y-111400674D01*
X152741288Y-110026534D01*
X153037867Y-109828366D01*
X154110432Y-108773275D01*
X147537500Y-102200343D01*
X140964568Y-108773275D01*
X126994000Y-108773275D01*
X126994000Y-99527360D01*
X130237423Y-99527360D01*
X130237423Y-104307640D01*
X130258342Y-104418813D01*
X130324045Y-104520919D01*
X130424297Y-104589418D01*
X130543300Y-104613517D01*
X133692900Y-104613517D01*
X133804073Y-104592598D01*
X133906179Y-104526895D01*
X133974678Y-104426643D01*
X133998777Y-104307640D01*
X133998777Y-103621980D01*
X138054326Y-103621980D01*
X139428466Y-107121288D01*
X139626634Y-107417867D01*
X140681725Y-108490432D01*
X147254657Y-101917500D01*
X147820343Y-101917500D01*
X154393275Y-108490432D01*
X155155090Y-107716000D01*
X164052160Y-107716000D01*
X164052160Y-108288002D01*
X164135892Y-108490150D01*
X164290610Y-108644867D01*
X164492758Y-108728600D01*
X165565140Y-108728600D01*
X165702640Y-108591100D01*
X165702640Y-107578500D01*
X166102640Y-107578500D01*
X166102640Y-108591100D01*
X166240140Y-108728600D01*
X167312522Y-108728600D01*
X167514670Y-108644867D01*
X167669388Y-108490150D01*
X167753120Y-108288002D01*
X167753120Y-107716000D01*
X167615620Y-107578500D01*
X166102640Y-107578500D01*
X165702640Y-107578500D01*
X164189660Y-107578500D01*
X164052160Y-107716000D01*
X155155090Y-107716000D01*
X155448366Y-107417867D01*
X155862140Y-106468998D01*
X164052160Y-106468998D01*
X164052160Y-107041000D01*
X164189660Y-107178500D01*
X165702640Y-107178500D01*
X165702640Y-106165900D01*
X166102640Y-106165900D01*
X166102640Y-107178500D01*
X167615620Y-107178500D01*
X167753120Y-107041000D01*
X167753120Y-106468998D01*
X167669388Y-106266850D01*
X167514670Y-106112133D01*
X167312522Y-106028400D01*
X166240140Y-106028400D01*
X166102640Y-106165900D01*
X165702640Y-106165900D01*
X165565140Y-106028400D01*
X164492758Y-106028400D01*
X164290610Y-106112133D01*
X164135892Y-106266850D01*
X164052160Y-106468998D01*
X155862140Y-106468998D01*
X156951087Y-103971819D01*
X157020674Y-100213020D01*
X156751423Y-99527360D01*
X161276223Y-99527360D01*
X161276223Y-104307640D01*
X161297142Y-104418813D01*
X161362845Y-104520919D01*
X161463097Y-104589418D01*
X161582100Y-104613517D01*
X164731700Y-104613517D01*
X164842873Y-104592598D01*
X164944979Y-104526895D01*
X165013478Y-104426643D01*
X165037577Y-104307640D01*
X165037577Y-103644500D01*
X166095500Y-103644500D01*
X166191638Y-103625377D01*
X166625500Y-103625377D01*
X166736673Y-103604458D01*
X166838779Y-103538755D01*
X166907278Y-103438503D01*
X166931377Y-103319500D01*
X166931377Y-102838117D01*
X166937050Y-102835767D01*
X167091768Y-102681050D01*
X167096552Y-102669500D01*
X167459623Y-102669500D01*
X167459623Y-103319500D01*
X167480542Y-103430673D01*
X167546245Y-103532779D01*
X167646497Y-103601278D01*
X167765500Y-103625377D01*
X168825500Y-103625377D01*
X168936673Y-103604458D01*
X169038779Y-103538755D01*
X169107278Y-103438503D01*
X169131377Y-103319500D01*
X169131377Y-102669500D01*
X169110458Y-102558327D01*
X169044755Y-102456221D01*
X168944503Y-102387722D01*
X168825500Y-102363623D01*
X167765500Y-102363623D01*
X167654327Y-102384542D01*
X167552221Y-102450245D01*
X167483722Y-102550497D01*
X167459623Y-102669500D01*
X167096552Y-102669500D01*
X167175500Y-102478902D01*
X167175500Y-102344500D01*
X167038000Y-102207000D01*
X166295500Y-102207000D01*
X166295500Y-102264500D01*
X165895500Y-102264500D01*
X165895500Y-102207000D01*
X165875500Y-102207000D01*
X165875500Y-101882000D01*
X165895500Y-101882000D01*
X165895500Y-101824500D01*
X166295500Y-101824500D01*
X166295500Y-101882000D01*
X167038000Y-101882000D01*
X167175500Y-101744500D01*
X167175500Y-101610098D01*
X167091768Y-101407950D01*
X166937050Y-101253233D01*
X166931377Y-101250883D01*
X166931377Y-100769500D01*
X167459623Y-100769500D01*
X167459623Y-101419500D01*
X167480542Y-101530673D01*
X167546245Y-101632779D01*
X167646497Y-101701278D01*
X167765500Y-101725377D01*
X168199362Y-101725377D01*
X168295500Y-101744500D01*
X169149000Y-101744500D01*
X169149000Y-106272523D01*
X168203880Y-106272523D01*
X168092707Y-106293442D01*
X167990601Y-106359145D01*
X167922102Y-106459397D01*
X167898003Y-106578400D01*
X167898003Y-108178600D01*
X167918922Y-108289773D01*
X167984625Y-108391879D01*
X168084877Y-108460378D01*
X168203880Y-108484477D01*
X170804840Y-108484477D01*
X170916013Y-108463558D01*
X171018119Y-108397855D01*
X171086618Y-108297603D01*
X171110717Y-108178600D01*
X171110717Y-107205500D01*
X171287000Y-107205500D01*
X171287000Y-107577402D01*
X171370733Y-107779550D01*
X171525450Y-107934268D01*
X171727598Y-108018000D01*
X171887000Y-108018000D01*
X172024500Y-107880500D01*
X172024500Y-107068000D01*
X172399500Y-107068000D01*
X172399500Y-107880500D01*
X172537000Y-108018000D01*
X172696402Y-108018000D01*
X172898550Y-107934268D01*
X173053267Y-107779550D01*
X173137000Y-107577402D01*
X173137000Y-107205500D01*
X172999500Y-107068000D01*
X172399500Y-107068000D01*
X172024500Y-107068000D01*
X171424500Y-107068000D01*
X171287000Y-107205500D01*
X171110717Y-107205500D01*
X171110717Y-106578400D01*
X171089798Y-106467227D01*
X171024095Y-106365121D01*
X170923843Y-106296622D01*
X170804840Y-106272523D01*
X170449000Y-106272523D01*
X170449000Y-102614500D01*
X170694623Y-102614500D01*
X170694623Y-103674500D01*
X170715542Y-103785673D01*
X170781245Y-103887779D01*
X170881497Y-103956278D01*
X171000500Y-103980377D01*
X171625500Y-103980377D01*
X171625500Y-104147600D01*
X171623721Y-104148745D01*
X171555222Y-104248997D01*
X171531123Y-104368000D01*
X171531123Y-105568000D01*
X171552042Y-105679173D01*
X171608713Y-105767243D01*
X171525450Y-105801732D01*
X171370733Y-105956450D01*
X171287000Y-106158598D01*
X171287000Y-106530500D01*
X171424500Y-106668000D01*
X172024500Y-106668000D01*
X172024500Y-106648000D01*
X172399500Y-106648000D01*
X172399500Y-106668000D01*
X172999500Y-106668000D01*
X173137000Y-106530500D01*
X173137000Y-106158598D01*
X173063022Y-105980000D01*
X176019886Y-105980000D01*
X176216806Y-106177264D01*
X176584215Y-106329826D01*
X176982040Y-106330173D01*
X177349714Y-106178253D01*
X177631264Y-105897194D01*
X177783826Y-105529785D01*
X177784173Y-105131960D01*
X177632253Y-104764286D01*
X177351194Y-104482736D01*
X176983785Y-104330174D01*
X176585960Y-104329827D01*
X176218286Y-104481747D01*
X176019687Y-104680000D01*
X172970238Y-104680000D01*
X172925500Y-104635262D01*
X172925500Y-104224500D01*
X173063000Y-104087000D01*
X173063000Y-103344500D01*
X173388000Y-103344500D01*
X173388000Y-104087000D01*
X173525500Y-104224500D01*
X173659902Y-104224500D01*
X173862050Y-104140768D01*
X174016767Y-103986050D01*
X174100500Y-103783902D01*
X174100500Y-103482000D01*
X173963000Y-103344500D01*
X173388000Y-103344500D01*
X173063000Y-103344500D01*
X173005500Y-103344500D01*
X173005500Y-102944500D01*
X173063000Y-102944500D01*
X173063000Y-102202000D01*
X173388000Y-102202000D01*
X173388000Y-102944500D01*
X173963000Y-102944500D01*
X174100500Y-102807000D01*
X174100500Y-102505098D01*
X174016767Y-102302950D01*
X173862050Y-102148232D01*
X173659902Y-102064500D01*
X173525500Y-102064500D01*
X173388000Y-102202000D01*
X173063000Y-102202000D01*
X172925500Y-102064500D01*
X172791098Y-102064500D01*
X172588950Y-102148232D01*
X172434233Y-102302950D01*
X172431883Y-102308623D01*
X171950500Y-102308623D01*
X171839327Y-102329542D01*
X171800971Y-102354223D01*
X171769503Y-102332722D01*
X171650500Y-102308623D01*
X171000500Y-102308623D01*
X170889327Y-102329542D01*
X170787221Y-102395245D01*
X170718722Y-102495497D01*
X170694623Y-102614500D01*
X170449000Y-102614500D01*
X170449000Y-101744500D01*
X170864259Y-101744500D01*
X170881497Y-101756278D01*
X171000500Y-101780377D01*
X171650500Y-101780377D01*
X171761673Y-101759458D01*
X171863779Y-101693755D01*
X171932278Y-101593503D01*
X171956377Y-101474500D01*
X171956377Y-101040636D01*
X171975499Y-100944500D01*
X171956377Y-100848364D01*
X171956377Y-100414500D01*
X171935458Y-100303327D01*
X171869755Y-100201221D01*
X171769503Y-100132722D01*
X171650500Y-100108623D01*
X171000500Y-100108623D01*
X170889327Y-100129542D01*
X170787221Y-100195245D01*
X170718722Y-100295497D01*
X170694623Y-100414500D01*
X170694623Y-100444500D01*
X168295500Y-100444500D01*
X168199362Y-100463623D01*
X167765500Y-100463623D01*
X167654327Y-100484542D01*
X167552221Y-100550245D01*
X167483722Y-100650497D01*
X167459623Y-100769500D01*
X166931377Y-100769500D01*
X166910458Y-100658327D01*
X166844755Y-100556221D01*
X166745500Y-100488403D01*
X166745500Y-99369500D01*
X172535623Y-99369500D01*
X172535623Y-99869500D01*
X172556542Y-99980673D01*
X172575500Y-100010135D01*
X172575500Y-100944500D01*
X172594623Y-101040638D01*
X172594623Y-101474500D01*
X172615542Y-101585673D01*
X172681245Y-101687779D01*
X172781497Y-101756278D01*
X172900500Y-101780377D01*
X173550500Y-101780377D01*
X173661673Y-101759458D01*
X173763779Y-101693755D01*
X173832278Y-101593503D01*
X173856377Y-101474500D01*
X173856377Y-101040638D01*
X173875500Y-100944500D01*
X173875500Y-100269500D01*
X175778123Y-100269500D01*
X175778123Y-101030000D01*
X175799042Y-101141173D01*
X175864745Y-101243279D01*
X175964997Y-101311778D01*
X176084000Y-101335877D01*
X177484000Y-101335877D01*
X177595173Y-101314958D01*
X177697279Y-101249255D01*
X177765778Y-101149003D01*
X177789877Y-101030000D01*
X177789877Y-99630000D01*
X177768958Y-99518827D01*
X177703255Y-99416721D01*
X177603003Y-99348222D01*
X177484000Y-99324123D01*
X176697361Y-99324123D01*
X176533119Y-99159881D01*
X176322245Y-99018978D01*
X176280976Y-99010769D01*
X176073500Y-98969500D01*
X173291500Y-98969500D01*
X173084024Y-99010769D01*
X173042755Y-99018978D01*
X172975940Y-99063623D01*
X172841500Y-99063623D01*
X172730327Y-99084542D01*
X172628221Y-99150245D01*
X172559722Y-99250497D01*
X172535623Y-99369500D01*
X166745500Y-99369500D01*
X166745500Y-98056878D01*
X166795401Y-98006977D01*
X168282620Y-98006977D01*
X168393793Y-97986058D01*
X168495899Y-97920355D01*
X168564398Y-97820103D01*
X168588497Y-97701100D01*
X168588497Y-97238500D01*
X168733380Y-97238500D01*
X168733380Y-97810502D01*
X168817112Y-98012650D01*
X168971830Y-98167367D01*
X169173978Y-98251100D01*
X170246360Y-98251100D01*
X170383860Y-98113600D01*
X170383860Y-97101000D01*
X170783860Y-97101000D01*
X170783860Y-98113600D01*
X170921360Y-98251100D01*
X171993742Y-98251100D01*
X172195890Y-98167367D01*
X172350608Y-98012650D01*
X172409902Y-97869500D01*
X172535623Y-97869500D01*
X172535623Y-98369500D01*
X172556542Y-98480673D01*
X172622245Y-98582779D01*
X172722497Y-98651278D01*
X172841500Y-98675377D01*
X172975940Y-98675377D01*
X173042756Y-98720022D01*
X173291500Y-98769500D01*
X173540244Y-98720022D01*
X173607060Y-98675377D01*
X173741500Y-98675377D01*
X173852673Y-98654458D01*
X173954779Y-98588755D01*
X174023278Y-98488503D01*
X174047377Y-98369500D01*
X174047377Y-97869500D01*
X174026458Y-97758327D01*
X173960755Y-97656221D01*
X173941500Y-97643065D01*
X173941500Y-97246423D01*
X173948278Y-97236503D01*
X173972377Y-97117500D01*
X173972377Y-95917500D01*
X173951458Y-95806327D01*
X173885755Y-95704221D01*
X173785503Y-95635722D01*
X173666500Y-95611623D01*
X172916500Y-95611623D01*
X172805327Y-95632542D01*
X172703221Y-95698245D01*
X172634722Y-95798497D01*
X172610623Y-95917500D01*
X172610623Y-97117500D01*
X172631542Y-97228673D01*
X172641500Y-97244148D01*
X172641500Y-97641700D01*
X172628221Y-97650245D01*
X172559722Y-97750497D01*
X172535623Y-97869500D01*
X172409902Y-97869500D01*
X172434340Y-97810502D01*
X172434340Y-97238500D01*
X172296840Y-97101000D01*
X170783860Y-97101000D01*
X170383860Y-97101000D01*
X168870880Y-97101000D01*
X168733380Y-97238500D01*
X168588497Y-97238500D01*
X168588497Y-96100900D01*
X168567912Y-95991498D01*
X168733380Y-95991498D01*
X168733380Y-96563500D01*
X168870880Y-96701000D01*
X170383860Y-96701000D01*
X170383860Y-95688400D01*
X170783860Y-95688400D01*
X170783860Y-96701000D01*
X172296840Y-96701000D01*
X172434340Y-96563500D01*
X172434340Y-95991498D01*
X172350608Y-95789350D01*
X172195890Y-95634633D01*
X171993742Y-95550900D01*
X170921360Y-95550900D01*
X170783860Y-95688400D01*
X170383860Y-95688400D01*
X170246360Y-95550900D01*
X169173978Y-95550900D01*
X168971830Y-95634633D01*
X168817112Y-95789350D01*
X168733380Y-95991498D01*
X168567912Y-95991498D01*
X168567578Y-95989727D01*
X168501875Y-95887621D01*
X168401623Y-95819122D01*
X168282620Y-95795023D01*
X165681660Y-95795023D01*
X165570487Y-95815942D01*
X165468381Y-95881645D01*
X165399882Y-95981897D01*
X165375783Y-96100900D01*
X165375783Y-97701100D01*
X165396702Y-97812273D01*
X165445500Y-97888108D01*
X165445500Y-100444500D01*
X165037577Y-100444500D01*
X165037577Y-99527360D01*
X165016658Y-99416187D01*
X164950955Y-99314081D01*
X164850703Y-99245582D01*
X164731700Y-99221483D01*
X161582100Y-99221483D01*
X161470927Y-99242402D01*
X161368821Y-99308105D01*
X161300322Y-99408357D01*
X161276223Y-99527360D01*
X156751423Y-99527360D01*
X155646534Y-96713712D01*
X155448366Y-96417133D01*
X154393275Y-95344568D01*
X147820343Y-101917500D01*
X147254657Y-101917500D01*
X140681725Y-95344568D01*
X139626634Y-96417133D01*
X138123913Y-99863181D01*
X138054326Y-103621980D01*
X133998777Y-103621980D01*
X133998777Y-99527360D01*
X133977858Y-99416187D01*
X133912155Y-99314081D01*
X133811903Y-99245582D01*
X133692900Y-99221483D01*
X130543300Y-99221483D01*
X130432127Y-99242402D01*
X130330021Y-99308105D01*
X130261522Y-99408357D01*
X130237423Y-99527360D01*
X126994000Y-99527360D01*
X126994000Y-95061725D01*
X140964568Y-95061725D01*
X147537500Y-101634657D01*
X154110432Y-95061725D01*
X153037867Y-94006634D01*
X149591819Y-92503913D01*
X145833020Y-92434326D01*
X142333712Y-93808466D01*
X142037133Y-94006634D01*
X140964568Y-95061725D01*
X126994000Y-95061725D01*
X126994000Y-90639900D01*
X168820023Y-90639900D01*
X168820023Y-92875100D01*
X168840942Y-92986273D01*
X168906645Y-93088379D01*
X169006897Y-93156878D01*
X169125900Y-93180977D01*
X170747739Y-93180977D01*
X170987881Y-93421119D01*
X171198755Y-93562022D01*
X171240024Y-93570231D01*
X171447500Y-93611500D01*
X172375345Y-93611500D01*
X172421927Y-93643328D01*
X172540930Y-93667427D01*
X172641500Y-93667427D01*
X172641500Y-93888577D01*
X172634722Y-93898497D01*
X172610623Y-94017500D01*
X172610623Y-95217500D01*
X172631542Y-95328673D01*
X172697245Y-95430779D01*
X172797497Y-95499278D01*
X172916500Y-95523377D01*
X173666500Y-95523377D01*
X173777673Y-95502458D01*
X173879779Y-95436755D01*
X173948278Y-95336503D01*
X173972377Y-95217500D01*
X173972377Y-94017500D01*
X173951458Y-93906327D01*
X173941500Y-93890852D01*
X173941500Y-93667427D01*
X174341790Y-93667427D01*
X174452963Y-93646508D01*
X174555069Y-93580805D01*
X174623568Y-93480553D01*
X174647667Y-93361550D01*
X174647667Y-92561450D01*
X174626748Y-92450277D01*
X174561579Y-92349000D01*
X174993210Y-92349000D01*
X174993210Y-92520952D01*
X175076943Y-92723100D01*
X175231660Y-92877818D01*
X175433808Y-92961550D01*
X176106140Y-92961550D01*
X176243640Y-92824050D01*
X176243640Y-92211500D01*
X176643640Y-92211500D01*
X176643640Y-92824050D01*
X176781140Y-92961550D01*
X177453472Y-92961550D01*
X177655620Y-92877818D01*
X177810337Y-92723100D01*
X177894070Y-92520952D01*
X177894070Y-92349000D01*
X177756570Y-92211500D01*
X176643640Y-92211500D01*
X176243640Y-92211500D01*
X175130710Y-92211500D01*
X174993210Y-92349000D01*
X174561579Y-92349000D01*
X174561045Y-92348171D01*
X174460793Y-92279672D01*
X174341790Y-92255573D01*
X172540930Y-92255573D01*
X172429757Y-92276492D01*
X172375353Y-92311500D01*
X171716738Y-92311500D01*
X171666977Y-92261739D01*
X171666977Y-90661450D01*
X172235053Y-90661450D01*
X172235053Y-91461550D01*
X172255972Y-91572723D01*
X172321675Y-91674829D01*
X172421927Y-91743328D01*
X172540930Y-91767427D01*
X174341790Y-91767427D01*
X174452963Y-91746508D01*
X174555069Y-91680805D01*
X174623568Y-91580553D01*
X174639465Y-91502048D01*
X174993210Y-91502048D01*
X174993210Y-91674000D01*
X175130710Y-91811500D01*
X176243640Y-91811500D01*
X176243640Y-91198950D01*
X176643640Y-91198950D01*
X176643640Y-91811500D01*
X177756570Y-91811500D01*
X177894070Y-91674000D01*
X177894070Y-91502048D01*
X177810337Y-91299900D01*
X177655620Y-91145182D01*
X177453472Y-91061450D01*
X176781140Y-91061450D01*
X176643640Y-91198950D01*
X176243640Y-91198950D01*
X176106140Y-91061450D01*
X175433808Y-91061450D01*
X175231660Y-91145182D01*
X175076943Y-91299900D01*
X174993210Y-91502048D01*
X174639465Y-91502048D01*
X174647667Y-91461550D01*
X174647667Y-90661450D01*
X174626748Y-90550277D01*
X174561045Y-90448171D01*
X174460793Y-90379672D01*
X174341790Y-90355573D01*
X172540930Y-90355573D01*
X172429757Y-90376492D01*
X172327651Y-90442195D01*
X172259152Y-90542447D01*
X172235053Y-90661450D01*
X171666977Y-90661450D01*
X171666977Y-90639900D01*
X171646058Y-90528727D01*
X171580355Y-90426621D01*
X171480103Y-90358122D01*
X171361100Y-90334023D01*
X169125900Y-90334023D01*
X169014727Y-90354942D01*
X168912621Y-90420645D01*
X168844122Y-90520897D01*
X168820023Y-90639900D01*
X126994000Y-90639900D01*
X126994000Y-60065000D01*
X208413000Y-60065000D01*
X208413000Y-131959000D01*
M02*
